RobotoMono-Thin.ufo
<glyph name="parenright" format="2">
  <advance width="1229"/>
  <unicode hex="0029"/>
  <outline>
    <contour>
      <point x="798" y="566" type="line" smooth="yes"/>
      <point x="798.0" y="478"/>
      <point x="780" y="285"/>
      <point x="760.5" y="187.5" type="qcurve" smooth="yes" name="inserted"/>
      <point x="741" y="90"/>
      <point x="678" y="-100"/>
      <point x="632.0" y="-186.0" type="qcurve" smooth="yes" name="inserted"/>
      <point x="586" y="-272"/>
      <point x="463" y="-417"/>
      <point x="384" y="-470" type="qcurve"/>
      <point x="365" y="-427" type="line"/>
      <point x="437" y="-377"/>
      <point x="549" y="-236"/>
      <point x="591.0" y="-153.0" type="qcurve" smooth="yes" name="inserted"/>
      <point x="633" y="-70"/>
      <point x="691" y="114"/>
      <point x="709.0" y="207.5" type="qcurve" smooth="yes" name="inserted"/>
      <point x="727" y="301"/>
      <point x="743" y="483"/>
      <point x="744" y="564" type="qcurve" smooth="yes"/>
      <point x="744" y="590" type="line" smooth="yes"/>
      <point x="743" y="671"/>
      <point x="727" y="853"/>
      <point x="709.0" y="946.5" type="qcurve" smooth="yes" name="inserted"/>
      <point x="691" y="1040"/>
      <point x="633" y="1224"/>
      <point x="591.0" y="1307.0" type="qcurve" smooth="yes" name="inserted"/>
      <point x="549" y="1390"/>
      <point x="437" y="1530"/>
      <point x="365" y="1580" type="qcurve"/>
      <point x="384" y="1623" type="line"/>
      <point x="462" y="1571"/>
      <point x="584" y="1425"/>
      <point x="630.0" y="1339.0" type="qcurve" smooth="yes" name="inserted"/>
      <point x="676" y="1253"/>
      <point x="739" y="1062"/>
      <point x="759.0" y="964.0" type="qcurve" smooth="yes" name="inserted"/>
      <point x="779" y="866"/>
      <point x="797" y="673"/>
      <point x="798" y="586" type="qcurve" smooth="yes"/>
    </contour>
  </outline>
</glyph>
<glyph name="period" format="2">
  <advance width="1229"/>
  <unicode hex="002E"/>
  <outline>
    <contour>
      <point x="589" y="52" type="qcurve" smooth="yes"/>
      <point x="589" y="77"/>
      <point x="625" y="112"/>
      <point x="647" y="112" type="qcurve" smooth="yes"/>
      <point x="670" y="112"/>
      <point x="707" y="77"/>
      <point x="707" y="52" type="qcurve" smooth="yes"/>
      <point x="707" y="28"/>
      <point x="670" y="-6"/>
      <point x="647" y="-6" type="qcurve" smooth="yes"/>
      <point x="625" y="-6"/>
      <point x="589" y="28"/>
    </contour>
  </outline>
</glyph>
<glyph name="G" format="2">
  <advance width="1229"/>
  <unicode hex="0047"/>
  <outline>
    <contour>
      <point x="1079" y="156" type="line"/>
      <point x="1039" y="107"/>
      <point x="936" y="40"/>
      <point x="878.0" y="19.0" type="qcurve" smooth="yes" name="inserted"/>
      <point x="820" y="-2"/>
      <point x="696" y="-20"/>
      <point x="635" y="-20" type="qcurve" smooth="yes"/>
      <point x="550" y="-19"/>
      <point x="411" y="35"/>
      <point x="356.0" y="81.0" type="qcurve" smooth="yes" name="inserted"/>
      <point x="301" y="127"/>
      <point x="219" y="251"/>
      <point x="191.5" y="322.0" type="qcurve" smooth="yes" name="inserted"/>
      <point x="164" y="393"/>
      <point x="136" y="545"/>
      <point x="135" y="620" type="qcurve" smooth="yes"/>
      <point x="135" y="858" type="line" smooth="yes"/>
      <point x="136" y="930"/>
      <point x="163" y="1077"/>
      <point x="189.5" y="1145.5" type="qcurve" smooth="yes" name="inserted"/>
      <point x="216" y="1214"/>
      <point x="296" y="1334"/>
      <point x="349.5" y="1379.0" type="qcurve" smooth="yes" name="inserted"/>
      <point x="403" y="1424"/>
      <point x="538" y="1476"/>
      <point x="620" y="1476" type="qcurve" smooth="yes"/>
      <point x="713" y="1476"/>
      <point x="870" y="1414"/>
      <point x="929.5" y="1358.5" type="qcurve" smooth="yes" name="inserted"/>
      <point x="989" y="1303"/>
      <point x="1065" y="1152"/>
      <point x="1077" y="1062" type="qcurve"/>
      <point x="1024" y="1062" type="line"/>
      <point x="1007" y="1140"/>
      <point x="939" y="1272"/>
      <point x="888.5" y="1320.0" type="qcurve" smooth="yes" name="inserted"/>
      <point x="838" y="1368"/>
      <point x="704" y="1422"/>
      <point x="620" y="1422" type="qcurve" smooth="yes"/>
      <point x="546" y="1422"/>
      <point x="425" y="1374"/>
      <point x="377.5" y="1333.0" type="qcurve" smooth="yes" name="inserted"/>
      <point x="330" y="1292"/>
      <point x="260" y="1182"/>
      <point x="237.0" y="1119.5" type="qcurve" smooth="yes" name="inserted"/>
      <point x="214" y="1057"/>
      <point x="190" y="924"/>
      <point x="189" y="860" type="qcurve"/>
      <point x="189" y="620" type="line" smooth="yes"/>
      <point x="190" y="553"/>
      <point x="214" y="414"/>
      <point x="238.0" y="349.5" type="qcurve" smooth="yes" name="inserted"/>
      <point x="262" y="285"/>
      <point x="334" y="170"/>
      <point x="383.5" y="127.5" type="qcurve" smooth="yes" name="inserted"/>
      <point x="433" y="85"/>
      <point x="558" y="35"/>
      <point x="635" y="34" type="qcurve" smooth="yes"/>
      <point x="687" y="33"/>
      <point x="797" y="47"/>
      <point x="849.0" y="64.0" type="qcurve" smooth="yes" name="inserted"/>
      <point x="901" y="81"/>
      <point x="992" y="138"/>
      <point x="1026" y="181" type="qcurve"/>
      <point x="1026" y="605" type="line"/>
      <point x="632" y="605" type="line"/>
      <point x="632" y="660" type="line"/>
      <point x="1078" y="660" type="line"/>
    </contour>
  </outline>
</glyph>
<glyph name="asciicircum" format="2">
  <advance width="1229"/>
  <unicode hex="005E"/>
  <outline>
    <contour>
      <point x="260" y="659" type="line"/>
      <point x="589" y="1456" type="line"/>
      <point x="641" y="1456" type="line"/>
      <point x="970" y="659" type="line"/>
      <point x="909" y="659" type="line"/>
      <point x="648" y="1299" type="line"/>
      <point x="615" y="1382" type="line"/>
      <point x="580" y="1298" type="line"/>
      <point x="319" y="659" type="line"/>
    </contour>
  </outline>
</glyph>
<glyph name="i" format="2">
  <advance width="1229"/>
  <unicode hex="0069"/>
  <outline>
    <contour>
      <point x="239" y="1082" type="line"/>
      <point x="690" y="1082" type="line"/>
      <point x="690" y="54" type="line"/>
      <point x="1074" y="54" type="line"/>
      <point x="1074" y="0" type="line"/>
      <point x="239" y="0" type="line"/>
      <point x="239" y="54" type="line"/>
      <point x="636" y="54" type="line"/>
      <point x="636" y="1028" type="line"/>
      <point x="239" y="1028" type="line"/>
    </contour>
    <contour>
      <point x="590" y="1390" type="qcurve" smooth="yes"/>
      <point x="590" y="1404"/>
      <point x="596" y="1431"/>
      <point x="604.0" y="1441.5" type="qcurve" smooth="yes" name="inserted"/>
      <point x="612" y="1452"/>
      <point x="639" y="1464"/>
      <point x="660" y="1464" type="qcurve" smooth="yes"/>
      <point x="680" y="1464"/>
      <point x="707" y="1452"/>
      <point x="715.5" y="1441.5" type="qcurve" smooth="yes" name="inserted"/>
      <point x="724" y="1431"/>
      <point x="731" y="1404"/>
      <point x="731" y="1390" type="qcurve" smooth="yes"/>
      <point x="731" y="1363"/>
      <point x="700" y="1319"/>
      <point x="660" y="1319" type="qcurve" smooth="yes"/>
      <point x="619" y="1319"/>
      <point x="590" y="1363"/>
    </contour>
  </outline>
</glyph>
<glyph name="p" format="2">
  <advance width="1229"/>
  <unicode hex="0070"/>
  <outline>
    <contour>
      <point x="220" y="-416" type="line"/>
      <point x="220" y="1082" type="line"/>
      <point x="274" y="1082" type="line"/>
      <point x="274" y="902" type="line"/>
      <point x="301" y="948"/>
      <point x="378" y="1022"/>
      <point x="423" y="1048" type="qcurve" smooth="yes" name="inserted"/>
      <point x="468" y="1074"/>
      <point x="569" y="1102"/>
      <point x="621" y="1102" type="qcurve" smooth="yes"/>
      <point x="728.4867920102431" y="1102.0"/>
      <point x="879.1749894617017" y="1020.9178706920977"/>
      <point x="932" y="953" type="qcurve" smooth="yes"/>
      <point x="992.5350001516377" y="872.2866664644829"/>
      <point x="1047.3430956644208" y="658.0418774770728"/>
      <point x="1049" y="552" type="qcurve" smooth="yes"/>
      <point x="1049" y="531" type="line" smooth="yes"/>
      <point x="1049" y="435"/>
      <point x="999" y="235"/>
      <point x="950" y="157" type="qcurve" smooth="yes"/>
      <point x="901" y="80"/>
      <point x="739" y="-20"/>
      <point x="623" y="-20" type="qcurve" smooth="yes"/>
      <point x="574" y="-20"/>
      <point x="474" y="4"/>
      <point x="428" y="27" type="qcurve" smooth="yes" name="inserted"/>
      <point x="382" y="49"/>
      <point x="302" y="115"/>
      <point x="274" y="158" type="qcurve"/>
      <point x="274" y="-416" type="line"/>
    </contour>
    <contour>
      <point x="994" y="552" type="line" smooth="yes"/>
      <point x="994.0" y="644.9141626117632"/>
      <point x="946.857691379006" y="838.4890123157055"/>
      <point x="894" y="914" type="qcurve" smooth="yes"/>
      <point x="850.4506257401792" y="973.3855103543011"/>
      <point x="716.9943168727539" y="1048.0"/>
      <point x="622" y="1048" type="qcurve" smooth="yes"/>
      <point x="563" y="1048"/>
      <point x="454" y="1011"/>
      <point x="408" y="977" type="qcurve" smooth="yes" name="inserted"/>
      <point x="362" y="943"/>
      <point x="293" y="848"/>
      <point x="274" y="790" type="qcurve"/>
      <point x="274" y="256" type="line"/>
      <point x="294" y="202"/>
      <point x="369" y="119"/>
      <point x="416" y="91" type="qcurve" smooth="yes" name="inserted"/>
      <point x="463" y="63"/>
      <point x="571" y="34"/>
      <point x="624" y="34" type="qcurve" smooth="yes"/>
      <point x="725" y="34"/>
      <point x="863" y="121"/>
      <point x="906" y="187" type="qcurve" smooth="yes"/>
      <point x="953" y="259"/>
      <point x="992" y="443"/>
      <point x="994" y="531" type="qcurve" smooth="yes"/>
    </contour>
  </outline>
</glyph>
<glyph name="logicalnot" format="2">
  <advance width="1229"/>
  <unicode hex="00AC"/>
  <outline>
    <contour>
      <point x="1000" y="396" type="line"/>
      <point x="946" y="396" type="line"/>
      <point x="946" y="700" type="line"/>
      <point x="207" y="700" type="line"/>
      <point x="207" y="753" type="line"/>
      <point x="1000" y="753" type="line"/>
    </contour>
  </outline>
</glyph>
<glyph name="registered" format="2">
  <advance width="1229"/>
  <unicode hex="00AE"/>
  <outline>
    <contour>
      <point x="81" y="539" type="qcurve" smooth="yes"/>
      <point x="81.0" y="646.4964491491038"/>
      <point x="162.44431232167568" y="868.4443123216756"/>
      <point x="244" y="950" type="qcurve" smooth="yes"/>
      <point x="308.8870753884491" y="1014.8870753884491"/>
      <point x="496.56250730532383" y="1096.0"/>
      <point x="620" y="1096" type="qcurve" smooth="yes"/>
      <point x="744.4850513980598" y="1096.0"/>
      <point x="934.739476865148" y="1014.2143058307801"/>
      <point x="998" y="947" type="qcurve" smooth="yes"/>
      <point x="1078.4704338528597" y="866.5295661471406"/>
      <point x="1158.0" y="645.2525617620231"/>
      <point x="1158" y="539" type="qcurve" smooth="yes"/>
      <point x="1158.0" y="443.195259543978"/>
      <point x="1094.2578515255743" y="243.31924474594905"/>
      <point x="1031" y="165" type="qcurve" smooth="yes"/>
      <point x="966.3020762079891" y="85.59800261889583"/>
      <point x="760.9180207910443" y="-21.0"/>
      <point x="620" y="-21" type="qcurve" smooth="yes"/>
      <point x="485.4721879411064" y="-21.0"/>
      <point x="285.789260685398" y="73.25288717752244"/>
      <point x="221" y="151" type="qcurve" smooth="yes"/>
      <point x="151.53510439396143" y="231.57927890300476"/>
      <point x="81.0" y="439.01655782179074"/>
    </contour>
    <contour>
      <point x="135" y="539" type="qcurve" smooth="yes"/>
      <point x="135.0" y="451.3195387274299"/>
      <point x="194.57637527949515" y="264.72657781056796"/>
      <point x="261" y="190" type="qcurve" smooth="yes"/>
      <point x="319.6966380202818" y="124.781513310798"/>
      <point x="497.4047568932475" y="34.0"/>
      <point x="620" y="34" type="qcurve" smooth="yes"/>
      <point x="747" y="34"/>
      <point x="929" y="129"/>
      <point x="988" y="203" type="qcurve" smooth="yes" name="inserted"/>
      <point x="1047" y="277"/>
      <point x="1103" y="455"/>
      <point x="1103" y="539" type="qcurve" smooth="yes"/>
      <point x="1103.0" y="632.1816470009574"/>
      <point x="1033.677462699761" y="829.8164178967988"/>
      <point x="961" y="905" type="qcurve" smooth="yes"/>
      <point x="900.6117178795434" y="965.3882821204566"/>
      <point x="731.7604690271394" y="1041.0"/>
      <point x="620" y="1041" type="qcurve" smooth="yes"/>
      <point x="505.106177782562" y="1041.0"/>
      <point x="331.6509527863671" y="962.4943496387916"/>
      <point x="274" y="901" type="qcurve" smooth="yes"/>
      <point x="201.07822088309854" y="822.8695223747484"/>
      <point x="135.0" y="629.905117981181"/>
    </contour>
    <contour>
      <point x="481" y="498" type="line"/>
      <point x="481" y="236" type="line"/>
      <point x="428" y="236" type="line"/>
      <point x="428" y="846" type="line"/>
      <point x="630" y="846" type="line" smooth="yes"/>
      <point x="730" y="844"/>
      <point x="839" y="749"/>
      <point x="838" y="668" type="qcurve" smooth="yes"/>
      <point x="837" y="608"/>
      <point x="765" y="529"/>
      <point x="699" y="514" type="qcurve"/>
      <point x="858" y="236" type="line"/>
      <point x="800" y="236" type="line"/>
      <point x="651" y="498" type="line"/>
    </contour>
    <contour>
      <point x="481" y="550" type="line"/>
      <point x="640" y="550" type="line" smooth="yes"/>
      <point x="678" y="551"/>
      <point x="733" y="570"/>
      <point x="750.0" y="586.5" type="qcurve" smooth="yes" name="inserted"/>
      <point x="767" y="603"/>
      <point x="784" y="645"/>
      <point x="784" y="669" type="qcurve" smooth="yes"/>
      <point x="785" y="725"/>
      <point x="707" y="788"/>
      <point x="630" y="791" type="qcurve" smooth="yes"/>
      <point x="481" y="791" type="line"/>
    </contour>
  </outline>
</glyph>
<glyph name="mu" format="2">
  <advance width="1229"/>
  <unicode hex="00B5"/>
  <outline>
    <contour>
      <point x="276" y="1082" type="line"/>
      <point x="276" y="440" type="line" smooth="yes"/>
      <point x="278" y="365"/>
      <point x="308" y="219"/>
      <point x="343.5" y="161.5" type="qcurve" smooth="yes" name="inserted"/>
      <point x="379" y="104"/>
      <point x="495" y="34"/>
      <point x="582" y="34" type="qcurve" smooth="yes"/>
      <point x="679" y="34"/>
      <point x="815" y="97"/>
      <point x="858.5" y="151.0" type="qcurve" smooth="yes" name="inserted"/>
      <point x="902" y="205"/>
      <point x="946" y="351"/>
      <point x="952" y="434" type="qcurve"/>
      <point x="952" y="1082" type="line"/>
      <point x="1006" y="1082" type="line"/>
      <point x="1006" y="0" type="line"/>
      <point x="955" y="0" type="line"/>
      <point x="952" y="220" type="line"/>
      <point x="930" y="167"/>
      <point x="865" y="80"/>
      <point x="820.5" y="48.0" type="qcurve" smooth="yes" name="inserted"/>
      <point x="776" y="16"/>
      <point x="662" y="-20"/>
      <point x="591" y="-20" type="qcurve" smooth="yes"/>
      <point x="485.00000000000006" y="-20.0"/>
      <point x="322.0" y="84.0"/>
      <point x="276" y="168" type="qcurve"/>
      <point x="276" y="-416" type="line"/>
      <point x="224" y="-416" type="line"/>
      <point x="224" y="1082" type="line"/>
    </contour>
  </outline>
</glyph>
<glyph name="multiply" format="2">
  <advance width="1229"/>
  <unicode hex="00D7"/>
  <outline>
    <contour>
      <point x="212" y="36" type="line"/>
      <point x="596" y="429" type="line"/>
      <point x="239" y="793" type="line"/>
      <point x="278" y="832" type="line"/>
      <point x="634" y="468" type="line"/>
      <point x="991" y="832" type="line"/>
      <point x="1030" y="793" type="line"/>
      <point x="673" y="429" type="line"/>
      <point x="1058" y="36" type="line"/>
      <point x="1019" y="-1" type="line"/>
      <point x="635" y="390" type="line"/>
      <point x="251" y="-1" type="line"/>
    </contour>
  </outline>
</glyph>
<glyph name="dcroat" format="2">
  <advance width="1259"/>
  <unicode hex="0111"/>
  <outline>
    <contour>
      <point x="1190" y="1281" type="line"/>
      <point x="1005" y="1281" type="line"/>
      <point x="1005" y="0" type="line"/>
      <point x="951" y="0" type="line"/>
      <point x="951" y="162" type="line"/>
      <point x="923" y="118"/>
      <point x="844" y="51"/>
      <point x="798" y="28" type="qcurve" smooth="yes" name="inserted"/>
      <point x="751" y="4"/>
      <point x="651" y="-20"/>
      <point x="602" y="-20" type="qcurve" smooth="yes"/>
      <point x="497.13057741023886" y="-20.0"/>
      <point x="344" y="64"/>
      <point x="295" y="128" type="qcurve" smooth="yes"/>
      <point x="233" y="209"/>
      <point x="176.0" y="426.6150268585063"/>
      <point x="176" y="531" type="qcurve" smooth="yes"/>
      <point x="176" y="552" type="line" smooth="yes"/>
      <point x="176" y="647"/>
      <point x="220" y="843"/>
      <point x="272" y="922" type="qcurve" smooth="yes"/>
      <point x="322" y="1002"/>
      <point x="485" y="1102"/>
      <point x="604" y="1102" type="qcurve" smooth="yes"/>
      <point x="657" y="1102"/>
      <point x="758" y="1073"/>
      <point x="803" y="1046" type="qcurve" smooth="yes" name="inserted"/>
      <point x="848" y="1019"/>
      <point x="924" y="943"/>
      <point x="951" y="896" type="qcurve"/>
      <point x="951" y="1281" type="line"/>
      <point x="603" y="1281" type="line"/>
      <point x="603" y="1335" type="line"/>
      <point x="951" y="1335" type="line"/>
      <point x="951" y="1536" type="line"/>
      <point x="1005" y="1536" type="line"/>
      <point x="1005" y="1335" type="line"/>
      <point x="1190" y="1335" type="line"/>
    </contour>
    <contour>
      <point x="232" y="531" type="line" smooth="yes"/>
      <point x="232.0" y="440.224143420399"/>
      <point x="275" y="256"/>
      <point x="329" y="172" type="qcurve" smooth="yes"/>
      <point x="366" y="114"/>
      <point x="505.10571357117726" y="34.0"/>
      <point x="601" y="34" type="qcurve" smooth="yes"/>
      <point x="654" y="34"/>
      <point x="761" y="63"/>
      <point x="808" y="91" type="qcurve" smooth="yes" name="inserted"/>
      <point x="855" y="119"/>
      <point x="930" y="202"/>
      <point x="951" y="255" type="qcurve"/>
      <point x="951" y="790" type="line"/>
      <point x="932" y="848"/>
      <point x="862" y="943"/>
      <point x="817" y="977" type="qcurve" smooth="yes" name="inserted"/>
      <point x="771" y="1011"/>
      <point x="662" y="1048"/>
      <point x="603" y="1048" type="qcurve" smooth="yes"/>
      <point x="493" y="1048"/>
      <point x="349" y="949"/>
      <point x="309" y="878" type="qcurve" smooth="yes"/>
      <point x="268" y="806"/>
      <point x="232" y="633"/>
      <point x="232" y="552" type="qcurve" smooth="yes"/>
    </contour>
  </outline>
</glyph>
<glyph name="eogonek" format="2">
  <advance width="1229"/>
  <unicode hex="0119"/>
  <outline>
    <contour>
      <point x="164" y="518" type="qcurve" smooth="yes"/>
      <point x="164" y="562" type="line" smooth="yes"/>
      <point x="165" y="663"/>
      <point x="231" y="857"/>
      <point x="292.0" y="933.0" type="qcurve" smooth="yes" name="inserted"/>
      <point x="353" y="1009"/>
      <point x="527" y="1102"/>
      <point x="637" y="1102" type="qcurve" smooth="yes"/>
      <point x="735" y="1102"/>
      <point x="893" y="1028"/>
      <point x="948.5" y="964.5" type="qcurve" smooth="yes" name="inserted"/>
      <point x="1004" y="901"/>
      <point x="1064" y="733"/>
      <point x="1065" y="640" type="qcurve" smooth="yes"/>
      <point x="1065" y="577" type="line"/>
      <point x="218" y="577" type="line"/>
      <point x="218" y="518" type="line" smooth="yes"/>
      <point x="219" y="425"/>
      <point x="283" y="250"/>
      <point x="340.5" y="182.5" type="qcurve" smooth="yes" name="inserted"/>
      <point x="398" y="115"/>
      <point x="559" y="34"/>
      <point x="658" y="33" type="qcurve" smooth="yes"/>
      <point x="759" y="32"/>
      <point x="928" y="104"/>
      <point x="993" y="182" type="qcurve"/>
      <point x="1032" y="155" type="line"/>
      <point x="1007.5" y="123.5" name="inserted"/>
      <point x="951" y="72"/>
      <point x="917" y="48" type="qcurve" smooth="yes"/>
      <point x="884" y="24"/>
      <point x="812.3880597014926" y="-31.611940298507463"/>
      <point x="790.0" y="-54.0" type="qcurve" smooth="yes" name="inserted"/>
      <point x="760" y="-84"/>
      <point x="719" y="-155"/>
      <point x="719" y="-196" type="qcurve" smooth="yes"/>
      <point x="720" y="-241"/>
      <point x="774" y="-290"/>
      <point x="819" y="-291" type="qcurve" smooth="yes"/>
      <point x="851" y="-292"/>
      <point x="909" y="-270"/>
      <point x="935" y="-253" type="qcurve"/>
      <point x="951" y="-301" type="line"/>
      <point x="921" y="-322"/>
      <point x="856" y="-345"/>
      <point x="819" y="-345" type="qcurve" smooth="yes"/>
      <point x="785" y="-345"/>
      <point x="728" y="-324"/>
      <point x="708.0" y="-305.0" type="qcurve" smooth="yes" name="inserted"/>
      <point x="688" y="-286"/>
      <point x="665" y="-231"/>
      <point x="665" y="-196" type="qcurve" smooth="yes"/>
      <point x="665.0" y="-141.34479412947633"/>
      <point x="730" y="-50"/>
      <point x="777" y="-7" type="qcurve"/>
      <point x="748" y="-13"/>
      <point x="689" y="-20"/>
      <point x="658" y="-20" type="qcurve" smooth="yes"/>
      <point x="547" y="-20"/>
      <point x="366" y="69"/>
      <point x="301.5" y="144.0" type="qcurve" smooth="yes" name="inserted"/>
      <point x="237" y="219"/>
      <point x="165" y="413"/>
    </contour>
    <contour>
      <point x="637" y="1048" type="qcurve" smooth="yes"/>
      <point x="547" y="1048"/>
      <point x="403" y="979"/>
      <point x="350.5" y="921.0" type="qcurve" smooth="yes" name="inserted"/>
      <point x="298" y="863"/>
      <point x="233" y="712"/>
      <point x="223" y="631" type="qcurve"/>
      <point x="1011" y="631" type="line"/>
      <point x="1011" y="644" type="line" smooth="yes"/>
      <point x="1011" y="724"/>
      <point x="956" y="870"/>
      <point x="907.0" y="926.0" type="qcurve" smooth="yes" name="inserted"/>
      <point x="858" y="982"/>
      <point x="720" y="1048"/>
    </contour>
  </outline>
</glyph>
<glyph name="IJ" format="2">
  <advance width="1229"/>
  <unicode hex="0132"/>
  <outline>
    <contour>
      <point x="203" y="0" type="line"/>
      <point x="149" y="0" type="line"/>
      <point x="149" y="1456" type="line"/>
      <point x="203" y="1456" type="line"/>
    </contour>
    <contour>
      <point x="1036" y="1456" type="line"/>
      <point x="1090" y="1456" type="line"/>
      <point x="1090" y="341" type="line" smooth="yes"/>
      <point x="1090" y="256"/>
      <point x="1048" y="122"/>
      <point x="1005.0" y="76.0" type="qcurve" smooth="yes" name="inserted"/>
      <point x="962" y="30"/>
      <point x="831" y="-19"/>
      <point x="741" y="-19" type="qcurve" smooth="yes"/>
      <point x="664" y="-19"/>
      <point x="537" y="22"/>
      <point x="491.5" y="64.0" type="qcurve" smooth="yes" name="inserted"/>
      <point x="446" y="106"/>
      <point x="396" y="234"/>
      <point x="396" y="321" type="qcurve"/>
      <point x="450" y="321" type="line"/>
      <point x="450" y="170"/>
      <point x="601" y="35"/>
      <point x="741" y="35" type="qcurve" smooth="yes"/>
      <point x="830" y="35"/>
      <point x="944" y="82"/>
      <point x="977.0" y="123.5" type="qcurve" smooth="yes" name="inserted"/>
      <point x="1010" y="165"/>
      <point x="1036" y="276"/>
      <point x="1036" y="341" type="qcurve" smooth="yes"/>
    </contour>
  </outline>
</glyph>
<glyph name="oe" format="2">
  <advance width="1229"/>
  <unicode hex="0153"/>
  <outline>
    <contour>
      <point x="8" y="622" type="line" smooth="yes"/>
      <point x="8" y="692"/>
      <point x="40" y="864"/>
      <point x="80" y="940" type="qcurve" smooth="yes"/>
      <point x="117" y="1011"/>
      <point x="249" y="1102"/>
      <point x="338" y="1102" type="qcurve" smooth="yes"/>
      <point x="405" y="1102"/>
      <point x="505" y="1055"/>
      <point x="542" y="1016" type="qcurve" smooth="yes" name="inserted"/>
      <point x="579" y="977"/>
      <point x="627" y="875"/>
      <point x="642" y="821" type="qcurve"/>
      <point x="656" y="875"/>
      <point x="703" y="976"/>
      <point x="738" y="1015" type="qcurve" smooth="yes" name="inserted"/>
      <point x="773" y="1054"/>
      <point x="869" y="1102"/>
      <point x="932" y="1102" type="qcurve" smooth="yes"/>
      <point x="1016" y="1102"/>
      <point x="1127" y="1029"/>
      <point x="1160" y="971" type="qcurve" smooth="yes" name="inserted"/>
      <point x="1193" y="913"/>
      <point x="1221" y="770"/>
      <point x="1222" y="700" type="qcurve"/>
      <point x="1219" y="557" type="line"/>
      <point x="670" y="557" type="line"/>
      <point x="670" y="440" type="line" smooth="yes"/>
      <point x="670" y="404"/>
      <point x="681" y="317"/>
      <point x="693" y="272" type="qcurve" smooth="yes" name="inserted"/>
      <point x="705" y="227"/>
      <point x="744" y="142"/>
      <point x="773" y="109" type="qcurve" smooth="yes" name="inserted"/>
      <point x="802" y="76"/>
      <point x="882" y="35"/>
      <point x="934" y="34" type="qcurve" smooth="yes"/>
      <point x="977" y="33"/>
      <point x="1048" y="54"/>
      <point x="1078" y="70" type="qcurve" smooth="yes" name="inserted"/>
      <point x="1107" y="86"/>
      <point x="1156" y="126"/>
      <point x="1177" y="145" type="qcurve"/>
      <point x="1204" y="103" type="line"/>
      <point x="1178" y="78"/>
      <point x="1120" y="33"/>
      <point x="1087" y="16" type="qcurve" smooth="yes" name="inserted"/>
      <point x="1053" y="-1"/>
      <point x="977" y="-20"/>
      <point x="934" y="-20" type="qcurve" smooth="yes"/>
      <point x="872" y="-19"/>
      <point x="776" y="28"/>
      <point x="741" y="67" type="qcurve" smooth="yes" name="inserted"/>
      <point x="705" y="106"/>
      <point x="657" y="205"/>
      <point x="642" y="258" type="qcurve"/>
      <point x="627" y="204"/>
      <point x="579" y="104"/>
      <point x="543" y="65" type="qcurve" smooth="yes" name="inserted"/>
      <point x="506" y="26"/>
      <point x="406" y="-20"/>
      <point x="340" y="-20" type="qcurve" smooth="yes"/>
      <point x="249.00231080300858" y="-20.0"/>
      <point x="124" y="69"/>
      <point x="88" y="130" type="qcurve" smooth="yes"/>
      <point x="45" y="203"/>
      <point x="8.0" y="385.4344247449727"/>
      <point x="8" y="460" type="qcurve" smooth="yes"/>
    </contour>
    <contour>
      <point x="62" y="460" type="line" smooth="yes"/>
      <point x="62.0" y="397.86730971624814"/>
      <point x="91" y="232"/>
      <point x="126" y="170" type="qcurve" smooth="yes"/>
      <point x="159" y="112"/>
      <point x="261.43140053053725" y="34.0"/>
      <point x="340" y="34" type="qcurve" smooth="yes"/>
      <point x="396" y="34"/>
      <point x="480" y="76"/>
      <point x="511" y="111" type="qcurve" smooth="yes" name="inserted"/>
      <point x="541" y="145"/>
      <point x="581" y="235"/>
      <point x="593" y="282" type="qcurve" smooth="yes" name="inserted"/>
      <point x="605" y="329"/>
      <point x="615" y="422"/>
      <point x="615" y="460" type="qcurve" smooth="yes"/>
      <point x="615" y="622" type="line" smooth="yes"/>
      <point x="615" y="660"/>
      <point x="604" y="753"/>
      <point x="592" y="800" type="qcurve" smooth="yes" name="inserted"/>
      <point x="580" y="847"/>
      <point x="539" y="937"/>
      <point x="509" y="972" type="qcurve" smooth="yes" name="inserted"/>
      <point x="478" y="1006"/>
      <point x="394" y="1048"/>
      <point x="338" y="1048" type="qcurve" smooth="yes"/>
      <point x="259" y="1048"/>
      <point x="154" y="966"/>
      <point x="121" y="900" type="qcurve" smooth="yes"/>
      <point x="89" y="837"/>
      <point x="62" y="681"/>
      <point x="62" y="622" type="qcurve" smooth="yes"/>
    </contour>
    <contour>
      <point x="932" y="1048" type="qcurve" smooth="yes"/>
      <point x="878" y="1048"/>
      <point x="797" y="1005"/>
      <point x="768.0" y="969.5" type="qcurve" smooth="yes" name="inserted"/>
      <point x="739" y="934"/>
      <point x="701" y="844"/>
      <point x="690.0" y="797.0" type="qcurve" smooth="yes" name="inserted"/>
      <point x="679" y="750"/>
      <point x="670" y="659"/>
      <point x="670" y="624" type="qcurve" smooth="yes"/>
      <point x="670" y="611" type="line"/>
      <point x="1171" y="611" type="line"/>
      <point x="1172" y="692" type="line" smooth="yes"/>
      <point x="1174" y="740"/>
      <point x="1152" y="863"/>
      <point x="1124.5" y="918.0" type="qcurve" smooth="yes" name="inserted"/>
      <point x="1097" y="973"/>
      <point x="1002" y="1048"/>
    </contour>
  </outline>
</glyph>
<glyph name="caron" format="2">
  <advance width="1229"/>
  <unicode hex="02C7"/>
  <outline>
    <contour>
      <point x="615" y="1289" type="line"/>
      <point x="809" y="1506" type="line"/>
      <point x="862" y="1506" type="line"/>
      <point x="862" y="1493" type="line"/>
      <point x="644" y="1243" type="line"/>
      <point x="585" y="1243" type="line"/>
      <point x="365" y="1495" type="line"/>
      <point x="365" y="1506" type="line"/>
      <point x="422" y="1506" type="line"/>
    </contour>
  </outline>
</glyph>
<glyph name="breve" format="2">
  <advance width="1229"/>
  <unicode hex="02D8"/>
  <outline>
    <contour>
      <point x="893" y="1486" type="line"/>
      <point x="890" y="1427"/>
      <point x="846" y="1335"/>
      <point x="809.0" y="1303.0" type="qcurve" smooth="yes" name="inserted"/>
      <point x="772" y="1271"/>
      <point x="673" y="1238"/>
      <point x="615" y="1238" type="qcurve" smooth="yes"/>
      <point x="557" y="1238"/>
      <point x="458" y="1271"/>
      <point x="421.0" y="1303.0" type="qcurve" smooth="yes" name="inserted"/>
      <point x="384" y="1335"/>
      <point x="339" y="1427"/>
      <point x="336" y="1486" type="qcurve"/>
      <point x="390" y="1486" type="line"/>
      <point x="393" y="1437"/>
      <point x="428" y="1365"/>
      <point x="457.5" y="1341.0" type="qcurve" smooth="yes" name="inserted"/>
      <point x="487" y="1317"/>
      <point x="567" y="1294"/>
      <point x="615" y="1294" type="qcurve" smooth="yes"/>
      <point x="661" y="1294"/>
      <point x="741" y="1318"/>
      <point x="770.5" y="1342.0" type="qcurve" smooth="yes" name="inserted"/>
      <point x="800" y="1366"/>
      <point x="836" y="1438"/>
      <point x="839" y="1486" type="qcurve"/>
    </contour>
  </outline>
</glyph>
<glyph name="tilde" format="2">
  <advance width="1229"/>
  <unicode hex="02DC"/>
  <outline>
    <contour>
      <point x="778" y="1472" type="line"/>
      <point x="776" y="1435"/>
      <point x="752" y="1368"/>
      <point x="730" y="1343" type="qcurve" smooth="yes" name="inserted"/>
      <point x="708" y="1317"/>
      <point x="647" y="1286"/>
      <point x="607" y="1286" type="qcurve" smooth="yes"/>
      <point x="562.5502236833248" y="1286.0"/>
      <point x="497" y="1327"/>
      <point x="463" y="1351" type="qcurve" smooth="yes"/>
      <point x="424" y="1378"/>
      <point x="367.63870106877613" y="1411.0"/>
      <point x="328" y="1411" type="qcurve" smooth="yes"/>
      <point x="299" y="1411"/>
      <point x="257" y="1391"/>
      <point x="243" y="1374" type="qcurve" smooth="yes" name="inserted"/>
      <point x="229" y="1357"/>
      <point x="213" y="1312"/>
      <point x="210" y="1286" type="qcurve"/>
      <point x="156" y="1286" type="line"/>
      <point x="158" y="1323"/>
      <point x="183" y="1388"/>
      <point x="205" y="1413" type="qcurve" smooth="yes" name="inserted"/>
      <point x="226" y="1437"/>
      <point x="288" y="1465"/>
      <point x="328" y="1465" type="qcurve" smooth="yes"/>
      <point x="370" y="1465"/>
      <point x="438" y="1426"/>
      <point x="470" y="1403" type="qcurve" smooth="yes" name="inserted"/>
      <point x="501" y="1379"/>
      <point x="566" y="1341"/>
      <point x="607" y="1341" type="qcurve" smooth="yes"/>
      <point x="636" y="1341"/>
      <point x="678" y="1363"/>
      <point x="692" y="1381" type="qcurve" smooth="yes" name="inserted"/>
      <point x="706" y="1399"/>
      <point x="721" y="1446"/>
      <point x="724" y="1472" type="qcurve"/>
    </contour>
  </outline>
</glyph>
<glyph name="alpha" format="2">
  <advance width="1229"/>
  <unicode hex="03B1"/>
  <outline>
    <contour>
      <point x="960" y="1082" type="line"/>
      <point x="960" y="255" type="line" smooth="yes"/>
      <point x="960" y="224"/>
      <point x="967" y="147"/>
      <point x="979" y="113" type="qcurve" smooth="yes" name="inserted"/>
      <point x="991" y="78"/>
      <point x="1040" y="32"/>
      <point x="1082" y="32" type="qcurve" smooth="yes"/>
      <point x="1099" y="32"/>
      <point x="1130" y="38"/>
      <point x="1146" y="42" type="qcurve"/>
      <point x="1157" y="-7" type="line"/>
      <point x="1139" y="-13"/>
      <point x="1105" y="-21"/>
      <point x="1085" y="-21" type="qcurve" smooth="yes"/>
      <point x="1034" y="-21"/>
      <point x="967" y="19"/>
      <point x="948" y="52" type="qcurve" smooth="yes" name="inserted"/>
      <point x="928" y="85"/>
      <point x="911" y="169"/>
      <point x="908" y="211" type="qcurve"/>
      <point x="882" y="160"/>
      <point x="806" y="75"/>
      <point x="759" y="44" type="qcurve" smooth="yes" name="inserted"/>
      <point x="711" y="13"/>
      <point x="601" y="-21"/>
      <point x="542" y="-21" type="qcurve" smooth="yes"/>
      <point x="434" y="-21"/>
      <point x="282" y="74"/>
      <point x="235" y="150" type="qcurve" smooth="yes"/>
      <point x="186" y="228"/>
      <point x="140" y="425"/>
      <point x="140" y="521" type="qcurve" smooth="yes"/>
      <point x="140" y="542" type="line" smooth="yes"/>
      <point x="140.0" y="636.4999999999999"/>
      <point x="183" y="836"/>
      <point x="229" y="915" type="qcurve" smooth="yes"/>
      <point x="278" y="999"/>
      <point x="432" y="1102.0"/>
      <point x="544" y="1102" type="qcurve" smooth="yes"/>
      <point x="605" y="1102"/>
      <point x="715" y="1063"/>
      <point x="762" y="1029" type="qcurve" smooth="yes" name="inserted"/>
      <point x="808" y="994"/>
      <point x="881" y="902"/>
      <point x="906" y="848" type="qcurve"/>
      <point x="906" y="854" type="line"/>
      <point x="912" y="1082" type="line"/>
    </contour>
    <contour>
      <point x="196" y="521" type="line" smooth="yes"/>
      <point x="196" y="434"/>
      <point x="234" y="252"/>
      <point x="278" y="180" type="qcurve" smooth="yes"/>
      <point x="318" y="115"/>
      <point x="447" y="33"/>
      <point x="541" y="33" type="qcurve" smooth="yes"/>
      <point x="608" y="33"/>
      <point x="727" y="79"/>
      <point x="775" y="119" type="qcurve" smooth="yes" name="inserted"/>
      <point x="823" y="159"/>
      <point x="890" y="268"/>
      <point x="906" y="331" type="qcurve"/>
      <point x="906" y="347"/>
      <point x="906" y="374"/>
      <point x="906" y="407" type="qcurve" smooth="yes"/>
      <point x="906" y="709" type="line"/>
      <point x="891" y="774"/>
      <point x="825" y="896"/>
      <point x="778" y="943" type="qcurve" smooth="yes" name="inserted"/>
      <point x="731" y="990"/>
      <point x="612" y="1048"/>
      <point x="543" y="1048" type="qcurve" smooth="yes"/>
      <point x="444.2631578947369" y="1048.0"/>
      <point x="311" y="955"/>
      <point x="274" y="885" type="qcurve" smooth="yes"/>
      <point x="231" y="804"/>
      <point x="196.0" y="624.5682904329194"/>
      <point x="196" y="542" type="qcurve" smooth="yes"/>
    </contour>
  </outline>
</glyph>
<glyph name="beta" format="2">
  <advance width="1229"/>
  <unicode hex="03B2"/>
  <outline>
    <contour>
      <point x="598" y="1476" type="qcurve" smooth="yes"/>
      <point x="680" y="1476"/>
      <point x="822" y="1422"/>
      <point x="875.0" y="1372.5" type="qcurve" smooth="yes" name="inserted"/>
      <point x="928" y="1323"/>
      <point x="989" y="1185"/>
      <point x="989" y="1102" type="qcurve" smooth="yes"/>
      <point x="989" y="1041"/>
      <point x="956" y="937"/>
      <point x="926.0" y="895.0" type="qcurve" smooth="yes" name="inserted"/>
      <point x="896" y="853"/>
      <point x="813" y="790"/>
      <point x="763" y="770" type="qcurve"/>
      <point x="833" y="755"/>
      <point x="954" y="691"/>
      <point x="998.5" y="643.0" type="qcurve" smooth="yes" name="inserted"/>
      <point x="1043" y="595"/>
      <point x="1094" y="466"/>
      <point x="1094" y="385" type="qcurve" smooth="yes"/>
      <point x="1094" y="289"/>
      <point x="1024" y="138"/>
      <point x="963.0" y="86.0" type="qcurve" smooth="yes" name="inserted"/>
      <point x="902" y="34"/>
      <point x="740" y="-21"/>
      <point x="649" y="-21" type="qcurve" smooth="yes"/>
      <point x="594" y="-21"/>
      <point x="483" y="1"/>
      <point x="432.0" y="23.0" type="qcurve" smooth="yes" name="inserted"/>
      <point x="381" y="45"/>
      <point x="294" y="110"/>
      <point x="264" y="154" type="qcurve"/>
      <point x="264" y="-413" type="line"/>
      <point x="210" y="-413" type="line"/>
      <point x="210" y="1053" type="line" smooth="yes"/>
      <point x="210.0" y="1135.0"/>
      <point x="268" y="1288"/>
      <point x="318.5" y="1346.5" type="qcurve" smooth="yes" name="inserted"/>
      <point x="369" y="1405"/>
      <point x="511" y="1476"/>
    </contour>
    <contour>
      <point x="594" y="791" type="line" smooth="yes"/>
      <point x="669" y="792"/>
      <point x="795" y="832"/>
      <point x="840.0" y="871.5" type="qcurve" smooth="yes" name="inserted"/>
      <point x="885" y="911"/>
      <point x="935" y="1028"/>
      <point x="935" y="1107" type="qcurve" smooth="yes"/>
      <point x="935" y="1179"/>
      <point x="881" y="1295"/>
      <point x="835.5" y="1336.0" type="qcurve" smooth="yes" name="inserted"/>
      <point x="790" y="1377"/>
      <point x="667" y="1422"/>
      <point x="598" y="1422" type="qcurve" smooth="yes"/>
      <point x="522" y="1422"/>
      <point x="399" y="1360"/>
      <point x="356.0" y="1308.5" type="qcurve" smooth="yes" name="inserted"/>
      <point x="313" y="1257"/>
      <point x="264.0" y="1124"/>
      <point x="264" y="1053" type="qcurve" smooth="yes"/>
      <point x="264" y="250" type="line"/>
      <point x="285" y="196"/>
      <point x="367" y="114"/>
      <point x="419.5" y="87.0" type="qcurve" smooth="yes" name="inserted"/>
      <point x="472" y="60"/>
      <point x="591" y="33"/>
      <point x="649" y="33" type="qcurve" smooth="yes"/>
      <point x="730" y="33"/>
      <point x="873" y="77"/>
      <point x="925.5" y="121.0" type="qcurve" smooth="yes" name="inserted"/>
      <point x="978" y="165"/>
      <point x="1039" y="295"/>
      <point x="1039" y="381" type="qcurve" smooth="yes"/>
      <point x="1039" y="470"/>
      <point x="974" y="602"/>
      <point x="919.0" y="646.0" type="qcurve" smooth="yes" name="inserted"/>
      <point x="864" y="690"/>
      <point x="716" y="734"/>
      <point x="634" y="735" type="qcurve" smooth="yes"/>
      <point x="491" y="735" type="line"/>
      <point x="491" y="791" type="line"/>
    </contour>
  </outline>
</glyph>
<glyph name="sigma1" format="2">
  <advance width="1229"/>
  <unicode hex="03C2"/>
  <outline>
    <contour>
      <point x="624" y="1102" type="qcurve" smooth="yes"/>
      <point x="712" y="1102"/>
      <point x="861" y="1049"/>
      <point x="917" y="1000" type="qcurve" smooth="yes" name="inserted"/>
      <point x="972" y="950"/>
      <point x="1037" y="809"/>
      <point x="1042" y="720" type="qcurve"/>
      <point x="987" y="720" type="line"/>
      <point x="985" y="798"/>
      <point x="927" y="920"/>
      <point x="879" y="962" type="qcurve" smooth="yes" name="inserted"/>
      <point x="830" y="1004"/>
      <point x="699" y="1048"/>
      <point x="624" y="1048" type="qcurve" smooth="yes"/>
      <point x="520" y="1048"/>
      <point x="363" y="968"/>
      <point x="310" y="901" type="qcurve" smooth="yes" name="inserted"/>
      <point x="257" y="834"/>
      <point x="201" y="658"/>
      <point x="201" y="562" type="qcurve" smooth="yes"/>
      <point x="201" y="520" type="line" smooth="yes"/>
      <point x="202" y="415"/>
      <point x="278" y="254"/>
      <point x="342" y="195" type="qcurve" smooth="yes" name="inserted"/>
      <point x="405" y="136"/>
      <point x="574" y="58"/>
      <point x="669" y="36" type="qcurve" smooth="yes"/>
      <point x="711" y="26"/>
      <point x="795" y="0"/>
      <point x="828" y="-21" type="qcurve" smooth="yes" name="inserted"/>
      <point x="861" y="-43"/>
      <point x="901" y="-111"/>
      <point x="900" y="-163" type="qcurve" smooth="yes"/>
      <point x="899" y="-196"/>
      <point x="874" y="-260"/>
      <point x="854" y="-288" type="qcurve" smooth="yes" name="inserted"/>
      <point x="834" y="-317"/>
      <point x="782" y="-364"/>
      <point x="754" y="-379" type="qcurve"/>
      <point x="718" y="-347" type="line"/>
      <point x="740" y="-335"/>
      <point x="781" y="-303"/>
      <point x="797" y="-283" type="qcurve" smooth="yes"/>
      <point x="818" y="-258"/>
      <point x="845" y="-197"/>
      <point x="846" y="-163" type="qcurve" smooth="yes"/>
      <point x="847" y="-122"/>
      <point x="813" y="-71"/>
      <point x="785" y="-55" type="qcurve" smooth="yes" name="inserted"/>
      <point x="757" y="-40"/>
      <point x="689" y="-23"/>
      <point x="657" y="-16" type="qcurve" smooth="yes"/>
      <point x="551" y="8"/>
      <point x="365" y="94"/>
      <point x="296" y="159" type="qcurve" smooth="yes" name="inserted"/>
      <point x="227" y="224"/>
      <point x="146" y="403"/>
      <point x="145" y="520" type="qcurve" smooth="yes"/>
      <point x="145" y="562" type="line" smooth="yes"/>
      <point x="146" y="669"/>
      <point x="210" y="864"/>
      <point x="271" y="939" type="qcurve" smooth="yes" name="inserted"/>
      <point x="332" y="1013"/>
      <point x="509" y="1102"/>
    </contour>
  </outline>
</glyph>
<glyph name="uni0402" format="2">
  <advance width="1229"/>
  <unicode hex="0402"/>
  <outline>
    <contour>
      <point x="933" y="1402" type="line"/>
      <point x="457" y="1402" type="line"/>
      <point x="457" y="793" type="line"/>
      <point x="523" y="829"/>
      <point x="665" y="880"/>
      <point x="743" y="880" type="qcurve" smooth="yes"/>
      <point x="844" y="880"/>
      <point x="988" y="804"/>
      <point x="1034.0" y="739.5" type="qcurve" smooth="yes" name="inserted"/>
      <point x="1080" y="675"/>
      <point x="1123" y="507"/>
      <point x="1123" y="415" type="qcurve" smooth="yes"/>
      <point x="1123" y="332"/>
      <point x="1072" y="181"/>
      <point x="1024.5" y="122.5" type="qcurve" smooth="yes" name="inserted"/>
      <point x="977" y="64"/>
      <point x="841" y="-8"/>
      <point x="754" y="-11" type="qcurve"/>
      <point x="754" y="40" type="line"/>
      <point x="830" y="43"/>
      <point x="948" y="107"/>
      <point x="988.0" y="158.5" type="qcurve" smooth="yes" name="inserted"/>
      <point x="1028" y="210"/>
      <point x="1069" y="343"/>
      <point x="1069" y="415" type="qcurve" smooth="yes"/>
      <point x="1069" y="493"/>
      <point x="1033" y="641"/>
      <point x="993.5" y="699.0" type="qcurve" smooth="yes" name="inserted"/>
      <point x="954" y="757"/>
      <point x="830" y="827"/>
      <point x="743" y="827" type="qcurve" smooth="yes"/>
      <point x="660.627332821277" y="827.0"/>
      <point x="524.693742633951" y="768.8558788865653"/>
      <point x="457" y="737" type="qcurve"/>
      <point x="457" y="0" type="line"/>
      <point x="407" y="0" type="line"/>
      <point x="407" y="1402" type="line"/>
      <point x="55" y="1402" type="line"/>
      <point x="55" y="1456" type="line"/>
      <point x="933" y="1456" type="line"/>
    </contour>
  </outline>
</glyph>
<glyph name="uni041B" format="2">
  <advance width="1229"/>
  <unicode hex="041B"/>
  <outline>
    <contour>
      <point x="1057" y="1456" type="line"/>
      <point x="1057" y="0" type="line"/>
      <point x="1006" y="0" type="line"/>
      <point x="1006" y="1402" type="line"/>
      <point x="421" y="1402" type="line"/>
      <point x="390" y="822" type="line" smooth="yes"/>
      <point x="388" y="781"/>
      <point x="381" y="666"/>
      <point x="374.5" y="601.0" type="qcurve" smooth="yes" name="inserted"/>
      <point x="368" y="536"/>
      <point x="347" y="396"/>
      <point x="331.5" y="329.5" type="qcurve" smooth="yes" name="inserted"/>
      <point x="316" y="263"/>
      <point x="271" y="144"/>
      <point x="240.5" y="99.0" type="qcurve" smooth="yes" name="inserted"/>
      <point x="210" y="54"/>
      <point x="131" y="1"/>
      <point x="81" y="0" type="qcurve" smooth="yes"/>
      <point x="51" y="0" type="line"/>
      <point x="51" y="54" type="line"/>
      <point x="83" y="54" type="line" smooth="yes"/>
      <point x="135" y="55"/>
      <point x="213" y="145"/>
      <point x="240.5" y="216.0" type="qcurve" smooth="yes" name="inserted"/>
      <point x="268" y="287"/>
      <point x="303" y="461"/>
      <point x="314.0" y="546.0" type="qcurve" smooth="yes" name="inserted"/>
      <point x="325" y="631"/>
      <point x="335" y="778"/>
      <point x="337" y="822" type="qcurve" smooth="yes"/>
      <point x="373" y="1456" type="line"/>
    </contour>
  </outline>
</glyph>
<glyph name="uni0426" format="2">
  <advance width="1229"/>
  <unicode hex="0426"/>
  <outline>
    <contour>
      <point x="223" y="1456" type="line"/>
      <point x="274" y="1456" type="line"/>
      <point x="274" y="54" type="line"/>
      <point x="1035" y="54" type="line"/>
      <point x="1035" y="1456" type="line"/>
      <point x="1086" y="1456" type="line"/>
      <point x="1086" y="54" type="line"/>
      <point x="1196" y="54" type="line"/>
      <point x="1196" y="-351" type="line"/>
      <point x="1145" y="-351" type="line"/>
      <point x="1145" y="0" type="line"/>
      <point x="223" y="0" type="line"/>
    </contour>
  </outline>
</glyph>
<glyph name="uni0444" format="2">
  <advance width="1229"/>
  <unicode hex="0444"/>
  <outline>
    <contour>
      <point x="141" y="562" type="line" smooth="yes"/>
      <point x="142" y="663"/>
      <point x="202" y="853"/>
      <point x="259.0" y="927.5" type="qcurve" smooth="yes" name="inserted"/>
      <point x="316" y="1002"/>
      <point x="482" y="1096"/>
      <point x="589" y="1101" type="qcurve"/>
      <point x="589" y="1536" type="line"/>
      <point x="643" y="1536" type="line"/>
      <point x="643" y="1101" type="line"/>
      <point x="749" y="1095"/>
      <point x="914" y="1001"/>
      <point x="970.5" y="926.5" type="qcurve" smooth="yes" name="inserted"/>
      <point x="1027" y="852"/>
      <point x="1087" y="663"/>
      <point x="1088" y="562" type="qcurve" smooth="yes"/>
      <point x="1088" y="520" type="line"/>
      <point x="1087" y="419"/>
      <point x="1027" y="229"/>
      <point x="970.5" y="155.0" type="qcurve" smooth="yes" name="inserted"/>
      <point x="914" y="81"/>
      <point x="749" y="-13"/>
      <point x="643" y="-19" type="qcurve"/>
      <point x="643" y="-416" type="line"/>
      <point x="589" y="-416" type="line"/>
      <point x="589" y="-19" type="line"/>
      <point x="482" y="-13"/>
      <point x="317" y="80"/>
      <point x="260.0" y="154.5" type="qcurve" smooth="yes" name="inserted"/>
      <point x="203" y="229"/>
      <point x="142" y="418"/>
      <point x="141" y="520" type="qcurve" smooth="yes"/>
    </contour>
    <contour>
      <point x="195" y="520" type="line" smooth="yes"/>
      <point x="196" y="431"/>
      <point x="249" y="261"/>
      <point x="299.5" y="194.0" type="qcurve" smooth="yes" name="inserted"/>
      <point x="350" y="127"/>
      <point x="495" y="41"/>
      <point x="589" y="35" type="qcurve"/>
      <point x="589" y="1047" type="line"/>
      <point x="495" y="1041"/>
      <point x="350" y="954"/>
      <point x="299.5" y="886.5" type="qcurve" smooth="yes" name="inserted"/>
      <point x="249" y="819"/>
      <point x="196" y="650"/>
      <point x="195" y="562" type="qcurve"/>
    </contour>
    <contour>
      <point x="1034" y="562" type="line" smooth="yes"/>
      <point x="1033" y="650"/>
      <point x="980" y="818"/>
      <point x="930.0" y="885.5" type="qcurve" smooth="yes" name="inserted"/>
      <point x="880" y="953"/>
      <point x="736" y="1041"/>
      <point x="643" y="1047" type="qcurve"/>
      <point x="643" y="35" type="line"/>
      <point x="736" y="41"/>
      <point x="881" y="128"/>
      <point x="930.5" y="195.0" type="qcurve" smooth="yes" name="inserted"/>
      <point x="980" y="262"/>
      <point x="1033" y="431"/>
      <point x="1034" y="520" type="qcurve" smooth="yes"/>
    </contour>
  </outline>
</glyph>
<glyph name="uni0452" format="2">
  <advance width="1229"/>
  <unicode hex="0452"/>
  <outline>
    <contour>
      <point x="587" y="1261" type="line"/>
      <point x="281" y="1261" type="line"/>
      <point x="281" y="821" type="line"/>
      <point x="307" y="881"/>
      <point x="387" y="984"/>
      <point x="438.5" y="1021.5" type="qcurve" smooth="yes" name="inserted"/>
      <point x="490" y="1059"/>
      <point x="614" y="1102"/>
      <point x="685" y="1102" type="qcurve" smooth="yes"/>
      <point x="778" y="1102"/>
      <point x="914" y="1042"/>
      <point x="958.0" y="988.5" type="qcurve" smooth="yes" name="inserted"/>
      <point x="1002" y="935"/>
      <point x="1045" y="787"/>
      <point x="1046" y="700" type="qcurve" smooth="yes"/>
      <point x="1046" y="-89" type="line"/>
      <point x="1045" y="-160"/>
      <point x="1007" y="-286"/>
      <point x="969.5" y="-333.5" type="qcurve" smooth="yes" name="inserted"/>
      <point x="932" y="-381"/>
      <point x="819" y="-437"/>
      <point x="743" y="-437" type="qcurve" smooth="yes"/>
      <point x="707" y="-437"/>
      <point x="638" y="-426"/>
      <point x="604" y="-417" type="qcurve"/>
      <point x="617" y="-365" type="line"/>
      <point x="648" y="-373"/>
      <point x="711" y="-383"/>
      <point x="743" y="-383" type="qcurve" smooth="yes"/>
      <point x="807" y="-383"/>
      <point x="901" y="-335"/>
      <point x="931.0" y="-294.5" type="qcurve" smooth="yes" name="inserted"/>
      <point x="961" y="-254"/>
      <point x="991" y="-148"/>
      <point x="992" y="-89" type="qcurve"/>
      <point x="991" y="700" type="line" smooth="yes"/>
      <point x="990" y="776"/>
      <point x="955" y="905"/>
      <point x="917.5" y="951.5" type="qcurve" smooth="yes" name="inserted"/>
      <point x="880" y="998"/>
      <point x="764" y="1050"/>
      <point x="682" y="1049" type="qcurve" smooth="yes"/>
      <point x="609" y="1048"/>
      <point x="477" y="992"/>
      <point x="423.5" y="945.0" type="qcurve" smooth="yes" name="inserted"/>
      <point x="370" y="898"/>
      <point x="296" y="772"/>
      <point x="281" y="702" type="qcurve"/>
      <point x="281" y="0" type="line"/>
      <point x="226" y="0" type="line"/>
      <point x="226" y="1261" type="line"/>
      <point x="0" y="1261" type="line"/>
      <point x="0" y="1315" type="line"/>
      <point x="226" y="1315" type="line"/>
      <point x="226" y="1536" type="line"/>
      <point x="281" y="1536" type="line"/>
      <point x="281" y="1315" type="line"/>
      <point x="587" y="1315" type="line"/>
    </contour>
  </outline>
</glyph>
<glyph name="uni0460" format="2">
  <advance width="1229"/>
  <unicode hex="0460"/>
  <outline>
    <contour>
      <point x="1142" y="1456" type="line"/>
      <point x="1145" y="429" type="line" smooth="yes"/>
      <point x="1145.0" y="341.97223498756176"/>
      <point x="1103.2996930376903" y="128.67130342793348"/>
      <point x="1044.0" y="58.5" type="qcurve" smooth="yes" name="inserted"/>
      <point x="1014" y="23"/>
      <point x="930" y="-20"/>
      <point x="874" y="-20" type="qcurve" smooth="yes"/>
      <point x="821" y="-20"/>
      <point x="741" y="18"/>
      <point x="711.5" y="50.5" type="qcurve" smooth="yes" name="inserted"/>
      <point x="682" y="83"/>
      <point x="642" y="167"/>
      <point x="630" y="214" type="qcurve"/>
      <point x="618" y="167"/>
      <point x="578" y="83"/>
      <point x="549.0" y="50.5" type="qcurve" smooth="yes" name="inserted"/>
      <point x="520" y="18"/>
      <point x="440" y="-20"/>
      <point x="387" y="-20" type="qcurve" smooth="yes"/>
      <point x="331" y="-20"/>
      <point x="247" y="23"/>
      <point x="217.0" y="58.5" type="qcurve" smooth="yes" name="inserted"/>
      <point x="157.43814805490865" y="128.98152480169145"/>
      <point x="116.0" y="342.36267976728703"/>
      <point x="116" y="429" type="qcurve" smooth="yes"/>
      <point x="118" y="1456" type="line"/>
      <point x="167" y="1456" type="line"/>
      <point x="169" y="429" type="line" smooth="yes"/>
      <point x="169.0" y="360.38891129796843"/>
      <point x="200.4237407547338" y="170.92618439463132"/>
      <point x="248.0" y="106.5" type="qcurve" smooth="yes" name="inserted"/>
      <point x="272" y="74"/>
      <point x="340" y="34"/>
      <point x="387" y="34" type="qcurve" smooth="yes"/>
      <point x="433" y="34"/>
      <point x="501" y="74"/>
      <point x="525.0" y="106.5" type="qcurve" smooth="yes" name="inserted"/>
      <point x="573.0" y="171.5"/>
      <point x="602.0" y="361.0"/>
      <point x="604" y="429" type="qcurve" smooth="yes"/>
      <point x="606" y="1456" type="line"/>
      <point x="655" y="1456" type="line"/>
      <point x="657" y="429" type="line" smooth="yes"/>
      <point x="657.0" y="360.38891129796843"/>
      <point x="688.4237407547338" y="170.92618439463132"/>
      <point x="736.0" y="106.5" type="qcurve" smooth="yes" name="inserted"/>
      <point x="760" y="74"/>
      <point x="828" y="34"/>
      <point x="874" y="34" type="qcurve" smooth="yes"/>
      <point x="920" y="34"/>
      <point x="988" y="74"/>
      <point x="1012.0" y="106.5" type="qcurve" smooth="yes" name="inserted"/>
      <point x="1059.8986456780594" y="171.3627493557051"/>
      <point x="1091" y="361"/>
      <point x="1091" y="429" type="qcurve" smooth="yes"/>
      <point x="1093" y="1456" type="line"/>
    </contour>
  </outline>
</glyph>
<glyph name="uni0469" format="2">
  <advance width="1229"/>
  <unicode hex="0469"/>
  <outline>
    <contour>
      <point x="1006" y="395" type="line"/>
      <point x="825" y="395" type="line"/>
      <point x="825" y="0" type="line"/>
      <point x="774" y="0" type="line"/>
      <point x="774" y="395" type="line"/>
      <point x="587" y="395" type="line"/>
      <point x="442" y="0" type="line"/>
      <point x="387" y="0" type="line"/>
      <point x="528" y="395" type="line"/>
      <point x="214" y="395" type="line"/>
      <point x="214" y="0" type="line"/>
      <point x="163" y="0" type="line"/>
      <point x="163" y="1082" type="line"/>
      <point x="214" y="1082" type="line"/>
      <point x="214" y="449" type="line"/>
      <point x="547" y="449" type="line"/>
      <point x="773" y="1082" type="line"/>
      <point x="820" y="1082" type="line"/>
      <point x="1206" y="0" type="line"/>
      <point x="1152" y="0" type="line"/>
    </contour>
    <contour>
      <point x="607" y="449" type="line"/>
      <point x="986" y="449" type="line"/>
      <point x="838" y="853" type="line"/>
      <point x="796" y="995" type="line"/>
      <point x="755" y="853" type="line"/>
    </contour>
  </outline>
</glyph>
<glyph name="uni047B" format="2">
  <advance width="1229"/>
  <unicode hex="047B"/>
  <outline>
    <contour>
      <point x="642" y="910" type="line"/>
      <point x="588" y="910" type="line"/>
      <point x="588" y="1247" type="line"/>
      <point x="642" y="1247" type="line"/>
    </contour>
    <contour>
      <point x="642" y="-176" type="line"/>
      <point x="588" y="-176" type="line"/>
      <point x="588" y="161" type="line"/>
      <point x="642" y="161" type="line"/>
    </contour>
    <contour>
      <point x="141" y="562" type="line" smooth="yes"/>
      <point x="142" y="666"/>
      <point x="206" y="861"/>
      <point x="266.0" y="936.0" type="qcurve" smooth="yes" name="inserted"/>
      <point x="326" y="1011"/>
      <point x="501" y="1102"/>
      <point x="614" y="1102" type="qcurve" smooth="yes"/>
      <point x="727" y="1102"/>
      <point x="902" y="1012"/>
      <point x="962.5" y="937.0" type="qcurve" smooth="yes" name="inserted"/>
      <point x="1023" y="862"/>
      <point x="1087" y="667"/>
      <point x="1088" y="562" type="qcurve" smooth="yes"/>
      <point x="1088" y="520" type="line"/>
      <point x="1087" y="416"/>
      <point x="1024" y="221"/>
      <point x="964.0" y="146.0" type="qcurve" smooth="yes" name="inserted"/>
      <point x="904" y="71"/>
      <point x="729" y="-20"/>
      <point x="616" y="-20" type="qcurve" smooth="yes"/>
      <point x="503" y="-20"/>
      <point x="327" y="70"/>
      <point x="266.5" y="145.0" type="qcurve" smooth="yes" name="inserted"/>
      <point x="206" y="220"/>
      <point x="142" y="415"/>
      <point x="141" y="520" type="qcurve" smooth="yes"/>
    </contour>
    <contour>
      <point x="195" y="520" type="line" smooth="yes"/>
      <point x="196" y="428"/>
      <point x="253" y="253"/>
      <point x="306.5" y="185.0" type="qcurve" smooth="yes" name="inserted"/>
      <point x="360" y="117"/>
      <point x="516" y="34"/>
      <point x="616" y="34" type="qcurve" smooth="yes"/>
      <point x="716" y="34"/>
      <point x="870" y="117"/>
      <point x="923.5" y="185.5" type="qcurve" smooth="yes" name="inserted"/>
      <point x="977" y="254"/>
      <point x="1033" y="428"/>
      <point x="1034" y="520" type="qcurve" smooth="yes"/>
      <point x="1034" y="562" type="line" smooth="yes"/>
      <point x="1033" y="653"/>
      <point x="976" y="828"/>
      <point x="922.5" y="896.0" type="qcurve" smooth="yes" name="inserted"/>
      <point x="869" y="964"/>
      <point x="713" y="1048"/>
      <point x="614" y="1048" type="qcurve" smooth="yes"/>
      <point x="515" y="1048"/>
      <point x="360" y="964"/>
      <point x="306.5" y="896.0" type="qcurve" smooth="yes" name="inserted"/>
      <point x="253" y="828"/>
      <point x="196" y="653"/>
      <point x="195" y="562" type="qcurve"/>
    </contour>
  </outline>
</glyph>
<glyph name="uni0480" format="2">
  <advance width="1229"/>
  <unicode hex="0480"/>
  <outline>
    <contour>
      <point x="695" y="-351" type="line"/>
      <point x="642" y="-351" type="line"/>
      <point x="642" y="-20" type="line"/>
      <point x="511" y="-14"/>
      <point x="329" y="133"/>
      <point x="276" y="238" type="qcurve" smooth="yes"/>
      <point x="227" y="334"/>
      <point x="180" y="586"/>
      <point x="180" y="699" type="qcurve" smooth="yes"/>
      <point x="180" y="777" type="line" smooth="yes"/>
      <point x="180.0" y="887.7473302726457"/>
      <point x="232" y="1134"/>
      <point x="287" y="1235" type="qcurve" smooth="yes"/>
      <point x="346" y="1343"/>
      <point x="535" y="1477"/>
      <point x="670" y="1477" type="qcurve" smooth="yes"/>
      <point x="773" y="1477"/>
      <point x="932" y="1404"/>
      <point x="987" y="1341" type="qcurve" smooth="yes" name="inserted"/>
      <point x="1041" y="1278"/>
      <point x="1102" y="1109"/>
      <point x="1107" y="1012" type="qcurve"/>
      <point x="1055" y="1012" type="line"/>
      <point x="1043" y="1096"/>
      <point x="990" y="1245"/>
      <point x="945" y="1301" type="qcurve" smooth="yes" name="inserted"/>
      <point x="899" y="1357"/>
      <point x="764" y="1423"/>
      <point x="670" y="1423" type="qcurve" smooth="yes"/>
      <point x="548" y="1423"/>
      <point x="378" y="1295"/>
      <point x="329" y="1199" type="qcurve" smooth="yes"/>
      <point x="279" y="1101"/>
      <point x="234.0" y="878.5178241721196"/>
      <point x="234" y="779" type="qcurve" smooth="yes"/>
      <point x="234" y="699" type="line" smooth="yes"/>
      <point x="234" y="600"/>
      <point x="273" y="371"/>
      <point x="319" y="275" type="qcurve" smooth="yes"/>
      <point x="367" y="175"/>
      <point x="528" y="36"/>
      <point x="654" y="33" type="qcurve" smooth="yes"/>
      <point x="695" y="33" type="line"/>
    </contour>
  </outline>
</glyph>
<glyph name="uni0486" format="2">
  <unicode hex="0486"/>
  <outline>
    <contour>
      <point x="423" y="1349" type="line"/>
      <point x="387" y="1377" type="line"/>
      <point x="451" y="1503" type="line"/>
      <point x="451" y="1642" type="line"/>
      <point x="548" y="1642" type="line"/>
      <point x="548" y="1500" type="line"/>
    </contour>
  </outline>
</glyph>
<glyph name="uni0491" format="2">
  <advance width="1229"/>
  <unicode hex="0491"/>
  <outline>
    <contour>
      <point x="1047" y="1027" type="line"/>
      <point x="258" y="1027" type="line"/>
      <point x="258" y="0" type="line"/>
      <point x="199" y="0" type="line"/>
      <point x="199" y="1082" type="line"/>
      <point x="988" y="1082" type="line"/>
      <point x="988" y="1454" type="line"/>
      <point x="1047" y="1454" type="line"/>
    </contour>
  </outline>
</glyph>
<glyph name="uni04A8" format="2">
  <advance width="1229"/>
  <unicode hex="04A8"/>
  <outline>
    <contour>
      <point x="1095" y="-22" type="line"/>
      <point x="1017" y="-20"/>
      <point x="882" y="15"/>
      <point x="822" y="47" type="qcurve"/>
      <point x="772" y="15"/>
      <point x="653" y="-21"/>
      <point x="581" y="-21" type="qcurve" smooth="yes"/>
      <point x="491" y="-21"/>
      <point x="353" y="43"/>
      <point x="301" y="97" type="qcurve" smooth="yes" name="inserted"/>
      <point x="249" y="150"/>
      <point x="177" y="290"/>
      <point x="155" y="368" type="qcurve" smooth="yes" name="inserted"/>
      <point x="133" y="445"/>
      <point x="113" y="605"/>
      <point x="113" y="677" type="qcurve" smooth="yes"/>
      <point x="113" y="919" type="line" smooth="yes"/>
      <point x="113" y="974"/>
      <point x="128" y="1098"/>
      <point x="144" y="1160" type="qcurve" smooth="yes" name="inserted"/>
      <point x="160" y="1221"/>
      <point x="213" y="1333"/>
      <point x="252" y="1377" type="qcurve" smooth="yes" name="inserted"/>
      <point x="291" y="1421"/>
      <point x="396" y="1474"/>
      <point x="465" y="1477" type="qcurve"/>
      <point x="468" y="1423" type="line"/>
      <point x="409" y="1421"/>
      <point x="319" y="1370"/>
      <point x="286" y="1330" type="qcurve" smooth="yes" name="inserted"/>
      <point x="252" y="1290"/>
      <point x="207" y="1187"/>
      <point x="193" y="1133" type="qcurve" smooth="yes" name="inserted"/>
      <point x="179" y="1078"/>
      <point x="167" y="968"/>
      <point x="167" y="921" type="qcurve" smooth="yes"/>
      <point x="167" y="677" type="line" smooth="yes"/>
      <point x="167" y="614"/>
      <point x="185" y="470"/>
      <point x="205" y="399" type="qcurve" smooth="yes" name="inserted"/>
      <point x="224" y="327"/>
      <point x="287" y="195"/>
      <point x="333" y="145" type="qcurve" smooth="yes" name="inserted"/>
      <point x="378" y="94"/>
      <point x="501" y="33"/>
      <point x="581" y="33" type="qcurve" smooth="yes"/>
      <point x="636" y="33"/>
      <point x="730" y="57"/>
      <point x="770" y="79" type="qcurve"/>
      <point x="704" y="125"/>
      <point x="603" y="251"/>
      <point x="568" y="326" type="qcurve" smooth="yes" name="inserted"/>
      <point x="533" y="400"/>
      <point x="496" y="568"/>
      <point x="495" y="657" type="qcurve" smooth="yes"/>
      <point x="495" y="939" type="line" smooth="yes"/>
      <point x="495" y="1009"/>
      <point x="520" y="1197"/>
      <point x="554" y="1278" type="qcurve" smooth="yes"/>
      <point x="585" y="1353"/>
      <point x="698" y="1463"/>
      <point x="787" y="1463" type="qcurve" smooth="yes"/>
      <point x="877.3781190152108" y="1463.0"/>
      <point x="993.1598719559756" y="1353.9857571949665"/>
      <point x="1027" y="1274" type="qcurve" smooth="yes"/>
      <point x="1059.1489773111289" y="1192.1662395716723"/>
      <point x="1086.0" y="1007.4053870651953"/>
      <point x="1086" y="939" type="qcurve" smooth="yes"/>
      <point x="1086" y="655" type="line" smooth="yes"/>
      <point x="1086.0" y="577"/>
      <point x="1060" y="415"/>
      <point x="1034" y="339" type="qcurve" smooth="yes" name="inserted"/>
      <point x="1007" y="263"/>
      <point x="925" y="130"/>
      <point x="868" y="81" type="qcurve"/>
      <point x="918" y="58"/>
      <point x="1031" y="32"/>
      <point x="1095" y="31" type="qcurve"/>
    </contour>
    <contour>
      <point x="550" y="655" type="line" smooth="yes"/>
      <point x="550" y="569"/>
      <point x="585" y="407"/>
      <point x="619" y="337" type="qcurve" smooth="yes" name="inserted"/>
      <point x="652" y="266"/>
      <point x="751" y="149"/>
      <point x="816" y="109" type="qcurve"/>
      <point x="873" y="153"/>
      <point x="955" y="280"/>
      <point x="981" y="353" type="qcurve" smooth="yes" name="inserted"/>
      <point x="1007" y="426"/>
      <point x="1032" y="581"/>
      <point x="1033" y="655" type="qcurve" smooth="yes"/>
      <point x="1033" y="940" type="line" smooth="yes"/>
      <point x="1033.0" y="1000.2463781471702"/>
      <point x="1011.7895754191866" y="1172.4638466221447"/>
      <point x="982" y="1251" type="qcurve" smooth="yes"/>
      <point x="954.4561297404663" y="1316.4166918663925"/>
      <point x="861.6947817586524" y="1409.0"/>
      <point x="787" y="1409" type="qcurve" smooth="yes"/>
      <point x="711" y="1409"/>
      <point x="620" y="1308"/>
      <point x="594" y="1237" type="qcurve" smooth="yes"/>
      <point x="568" y="1163"/>
      <point x="550" y="995"/>
      <point x="550" y="940" type="qcurve" smooth="yes"/>
    </contour>
  </outline>
</glyph>
<glyph name="uni04B0" format="2">
  <advance width="1229"/>
  <unicode hex="04B0"/>
  <outline>
    <contour>
      <point x="864" y="558" type="line"/>
      <point x="626" y="558" type="line"/>
      <point x="624" y="553" type="line"/>
      <point x="624" y="0" type="line"/>
      <point x="572" y="0" type="line"/>
      <point x="571" y="553" type="line"/>
      <point x="568" y="558" type="line"/>
      <point x="277" y="558" type="line"/>
      <point x="277" y="612" type="line"/>
      <point x="539" y="612" type="line"/>
      <point x="90" y="1456" type="line"/>
      <point x="157" y="1456" type="line"/>
      <point x="592" y="612" type="line"/>
      <point x="602" y="612" type="line"/>
      <point x="1043" y="1456" type="line"/>
      <point x="1106" y="1456" type="line"/>
      <point x="655" y="612" type="line"/>
      <point x="864" y="612" type="line"/>
    </contour>
  </outline>
</glyph>
<glyph name="uni04B4" format="2">
  <advance width="1229"/>
  <unicode hex="04B4"/>
  <outline>
    <contour>
      <point x="367" y="1401" type="line"/>
      <point x="70" y="1401" type="line"/>
      <point x="70" y="1455" type="line"/>
      <point x="745" y="1455" type="line"/>
      <point x="745" y="1401" type="line"/>
      <point x="416" y="1401" type="line"/>
      <point x="416" y="54" type="line"/>
      <point x="1059" y="54" type="line"/>
      <point x="1059" y="1456" type="line"/>
      <point x="1108" y="1456" type="line"/>
      <point x="1108" y="54" type="line"/>
      <point x="1202" y="54" type="line"/>
      <point x="1202" y="-351" type="line"/>
      <point x="1153" y="-351" type="line"/>
      <point x="1153" y="0" type="line"/>
      <point x="367" y="0" type="line"/>
    </contour>
  </outline>
</glyph>
<glyph name="uni0504" format="2">
  <advance width="1229"/>
  <unicode hex="0504"/>
  <outline>
    <contour>
      <point x="602" y="391" type="line" smooth="yes"/>
      <point x="601" y="452"/>
      <point x="578" y="567"/>
      <point x="550" y="612" type="qcurve" smooth="yes" name="inserted"/>
      <point x="522" y="656"/>
      <point x="431" y="712"/>
      <point x="362" y="715" type="qcurve" smooth="yes"/>
      <point x="216" y="715" type="line"/>
      <point x="216" y="770" type="line"/>
      <point x="371" y="770" type="line" smooth="yes"/>
      <point x="447" y="771"/>
      <point x="559" y="822"/>
      <point x="596" y="867" type="qcurve" smooth="yes" name="inserted"/>
      <point x="633" y="911"/>
      <point x="670" y="1034"/>
      <point x="670" y="1106" type="qcurve" smooth="yes"/>
      <point x="670" y="1182"/>
      <point x="620" y="1293"/>
      <point x="576" y="1329" type="qcurve" smooth="yes" name="inserted"/>
      <point x="531" y="1365"/>
      <point x="410" y="1401"/>
      <point x="339" y="1402" type="qcurve" smooth="yes"/>
      <point x="58" y="1402" type="line"/>
      <point x="58" y="1456" type="line"/>
      <point x="339" y="1456" type="line" smooth="yes"/>
      <point x="421" y="1455"/>
      <point x="562" y="1410"/>
      <point x="614" y="1366" type="qcurve" smooth="yes" name="inserted"/>
      <point x="665" y="1322"/>
      <point x="723" y="1191"/>
      <point x="723" y="1104" type="qcurve" smooth="yes"/>
      <point x="723" y="1033"/>
      <point x="677" y="882"/>
      <point x="634" y="825" type="qcurve" smooth="yes"/>
      <point x="605" y="785"/>
      <point x="528" y="733"/>
      <point x="482" y="727" type="qcurve"/>
      <point x="530" y="709"/>
      <point x="596" y="643"/>
      <point x="617" y="600" type="qcurve" smooth="yes" name="inserted"/>
      <point x="637" y="556"/>
      <point x="655" y="451"/>
      <point x="656" y="393" type="qcurve" smooth="yes"/>
      <point x="656" y="304" type="line" smooth="yes"/>
      <point x="656" y="265"/>
      <point x="672" y="171"/>
      <point x="691" y="130" type="qcurve" smooth="yes" name="inserted"/>
      <point x="710" y="88"/>
      <point x="775" y="33"/>
      <point x="825" y="33" type="qcurve" smooth="yes"/>
      <point x="880" y="33"/>
      <point x="964" y="84"/>
      <point x="995" y="126" type="qcurve" smooth="yes" name="inserted"/>
      <point x="1026" y="167"/>
      <point x="1067" y="273"/>
      <point x="1080" y="329" type="qcurve" smooth="yes" name="inserted"/>
      <point x="1092" y="384"/>
      <point x="1103" y="488"/>
      <point x="1104" y="529" type="qcurve" smooth="yes"/>
      <point x="1105" y="580"/>
      <point x="1095" y="681"/>
      <point x="1088" y="732" type="qcurve" smooth="yes" name="inserted"/>
      <point x="1080" y="782"/>
      <point x="1060" y="882"/>
      <point x="1050" y="932" type="qcurve"/>
      <point x="1103" y="932" type="line"/>
      <point x="1131" y="836"/>
      <point x="1159" y="629"/>
      <point x="1157" y="529" type="qcurve" smooth="yes"/>
      <point x="1156" y="479"/>
      <point x="1143" y="359"/>
      <point x="1128" y="298" type="qcurve" smooth="yes" name="inserted"/>
      <point x="1112" y="237"/>
      <point x="1063" y="123"/>
      <point x="1027" y="79" type="qcurve" smooth="yes" name="inserted"/>
      <point x="990" y="34"/>
      <point x="890" y="-20"/>
      <point x="825" y="-21" type="qcurve" smooth="yes"/>
      <point x="759" y="-22"/>
      <point x="673" y="38"/>
      <point x="649" y="86" type="qcurve" smooth="yes" name="inserted"/>
      <point x="624" y="134"/>
      <point x="603" y="250"/>
      <point x="602" y="304" type="qcurve" smooth="yes"/>
    </contour>
  </outline>
</glyph>
<glyph name="quoteleft" format="2">
  <advance width="1229"/>
  <unicode hex="2018"/>
  <outline>
    <contour>
      <point x="562" y="1272" type="line" smooth="yes"/>
      <point x="563" y="1312"/>
      <point x="575" y="1388"/>
      <point x="588" y="1423" type="qcurve" smooth="yes"/>
      <point x="601" y="1458"/>
      <point x="640" y="1524"/>
      <point x="666" y="1554" type="qcurve"/>
      <point x="703" y="1522" type="line"/>
      <point x="661" y="1465"/>
      <point x="617" y="1346"/>
      <point x="616" y="1274" type="qcurve"/>
      <point x="616" y="1168" type="line"/>
      <point x="562" y="1168" type="line"/>
    </contour>
  </outline>
</glyph>
<glyph name="uni2074" format="2">
  <advance width="1229"/>
  <unicode hex="2074"/>
  <outline>
    <contour>
      <point x="857" y="922" type="line"/>
      <point x="1035" y="922" type="line"/>
      <point x="1035" y="873" type="line"/>
      <point x="857" y="873" type="line"/>
      <point x="857" y="669" type="line"/>
      <point x="801" y="669" type="line"/>
      <point x="801" y="873" type="line"/>
      <point x="291" y="873" type="line"/>
      <point x="291" y="905" type="line"/>
      <point x="791" y="1458" type="line"/>
      <point x="857" y="1458" type="line"/>
    </contour>
    <contour>
      <point x="366" y="922" type="line"/>
      <point x="801" y="922" type="line"/>
      <point x="801" y="1407" type="line"/>
      <point x="740" y="1325" type="line"/>
    </contour>
  </outline>
</glyph>
<glyph name="lozenge" format="2">
  <advance width="1229"/>
  <unicode hex="25CA"/>
  <outline>
    <contour>
      <point x="590" y="1456" type="line"/>
      <point x="641" y="1456" type="line"/>
      <point x="1061" y="727" type="line"/>
      <point x="641" y="0" type="line"/>
      <point x="590" y="0" type="line"/>
      <point x="169" y="727" type="line"/>
    </contour>
    <contour>
      <point x="615" y="1391" type="line"/>
      <point x="587" y="1343" type="line"/>
      <point x="238" y="727" type="line"/>
      <point x="583" y="118" type="line"/>
      <point x="615" y="62" type="line"/>
      <point x="646" y="117" type="line"/>
      <point x="993" y="727" type="line"/>
      <point x="641" y="1344" type="line"/>
    </contour>
  </outline>
</glyph>
<glyph name="L.smcp" format="2">
  <advance width="1229"/>
  <outline>
    <contour>
      <point x="316" y="54" type="line"/>
      <point x="1085" y="54" type="line"/>
      <point x="1085" y="0" type="line"/>
      <point x="259" y="0" type="line"/>
      <point x="259" y="1165" type="line"/>
      <point x="316" y="1165" type="line"/>
    </contour>
  </outline>
</glyph>
<glyph name="S.smcp" format="2">
  <advance width="1229"/>
  <outline>
    <contour>
      <point x="1015" y="281" type="qcurve" smooth="yes"/>
      <point x="1015" y="343"/>
      <point x="954" y="433"/>
      <point x="910" y="463" type="qcurve" smooth="yes"/>
      <point x="858" y="499"/>
      <point x="708" y="547"/>
      <point x="625" y="566" type="qcurve" smooth="yes"/>
      <point x="561" y="581"/>
      <point x="421" y="624"/>
      <point x="351" y="660" type="qcurve" smooth="yes"/>
      <point x="289" y="692"/>
      <point x="201" y="809"/>
      <point x="201" y="891" type="qcurve" smooth="yes"/>
      <point x="201" y="967"/>
      <point x="282" y="1083"/>
      <point x="345" y="1116" type="qcurve" smooth="yes"/>
      <point x="411" y="1151"/>
      <point x="561" y="1181"/>
      <point x="627" y="1181" type="qcurve" smooth="yes"/>
      <point x="707" y="1181"/>
      <point x="859" y="1138"/>
      <point x="919" y="1095" type="qcurve" smooth="yes" name="inserted"/>
      <point x="978" y="1051"/>
      <point x="1053" y="921"/>
      <point x="1057" y="835" type="qcurve"/>
      <point x="1003" y="835" type="line"/>
      <point x="1000" y="910"/>
      <point x="933" y="1019"/>
      <point x="880" y="1055" type="qcurve" smooth="yes" name="inserted"/>
      <point x="827" y="1091"/>
      <point x="695" y="1126"/>
      <point x="627" y="1126" type="qcurve" smooth="yes"/>
      <point x="570" y="1126"/>
      <point x="433" y="1101"/>
      <point x="376" y="1071" type="qcurve" smooth="yes"/>
      <point x="325" y="1044"/>
      <point x="254" y="957"/>
      <point x="254" y="893" type="qcurve"/>
      <point x="254" y="826"/>
      <point x="324" y="738"/>
      <point x="381" y="706" type="qcurve" smooth="yes"/>
      <point x="436" y="675"/>
      <point x="570" y="637"/>
      <point x="640" y="620" type="qcurve" smooth="yes"/>
      <point x="719" y="601"/>
      <point x="878" y="550"/>
      <point x="946" y="503" type="qcurve" smooth="yes"/>
      <point x="999" y="469"/>
      <point x="1070" y="358"/>
      <point x="1070" y="282" type="qcurve" smooth="yes"/>
      <point x="1070.0" y="213.66666666666669"/>
      <point x="1014" y="112"/>
      <point x="964" y="77" type="qcurve" smooth="yes"/>
      <point x="892" y="27"/>
      <point x="715" y="-16"/>
      <point x="634" y="-16" type="qcurve" smooth="yes"/>
      <point x="578" y="-16"/>
      <point x="466" y="0"/>
      <point x="415" y="17" type="qcurve" smooth="yes" name="inserted"/>
      <point x="363" y="34"/>
      <point x="273" y="89"/>
      <point x="239" y="128" type="qcurve" smooth="yes" name="inserted"/>
      <point x="205" y="166"/>
      <point x="163" y="266"/>
      <point x="160" y="329" type="qcurve"/>
      <point x="213" y="329" type="line"/>
      <point x="217" y="247"/>
      <point x="297" y="135"/>
      <point x="357" y="101" type="qcurve" smooth="yes" name="inserted"/>
      <point x="417" y="66"/>
      <point x="563" y="37"/>
      <point x="634" y="37" type="qcurve" smooth="yes"/>
      <point x="701" y="37"/>
      <point x="873" y="75"/>
      <point x="927" y="116" type="qcurve" smooth="yes"/>
      <point x="969" y="148"/>
      <point x="1015" y="232"/>
    </contour>
  </outline>
</glyph>
<glyph name="eight.sup" format="2">
  <advance width="1229"/>
  <outline>
    <contour>
      <point x="874" y="586" type="qcurve" smooth="yes"/>
      <point x="874" y="550"/>
      <point x="848" y="491"/>
      <point x="827.0" y="468.5" type="qcurve" smooth="yes" name="inserted"/>
      <point x="806" y="446"/>
      <point x="750" y="414"/>
      <point x="719" y="404" type="qcurve"/>
      <point x="754" y="394"/>
      <point x="819" y="360"/>
      <point x="843.5" y="335.5" type="qcurve" smooth="yes" name="inserted"/>
      <point x="868" y="311"/>
      <point x="898" y="248"/>
      <point x="898" y="208" type="qcurve" smooth="yes"/>
      <point x="898" y="151"/>
      <point x="848" y="68"/>
      <point x="807.5" y="41.0" type="qcurve" smooth="yes" name="inserted"/>
      <point x="767" y="14"/>
      <point x="666" y="-11"/>
      <point x="616" y="-11" type="qcurve" smooth="yes"/>
      <point x="566" y="-11"/>
      <point x="464" y="14"/>
      <point x="423.0" y="40.5" type="qcurve" smooth="yes" name="inserted"/>
      <point x="382" y="67"/>
      <point x="331" y="150"/>
      <point x="331" y="208" type="qcurve" smooth="yes"/>
      <point x="331" y="248"/>
      <point x="360" y="312"/>
      <point x="385.0" y="336.5" type="qcurve" smooth="yes" name="inserted"/>
      <point x="410" y="361"/>
      <point x="475" y="395"/>
      <point x="510" y="405" type="qcurve"/>
      <point x="479" y="415"/>
      <point x="423" y="447"/>
      <point x="402.0" y="469.5" type="qcurve" smooth="yes" name="inserted"/>
      <point x="381" y="492"/>
      <point x="356" y="550"/>
      <point x="356" y="586" type="qcurve" smooth="yes"/>
      <point x="356" y="640"/>
      <point x="400" y="720"/>
      <point x="436.5" y="746.5" type="qcurve" smooth="yes" name="inserted"/>
      <point x="473" y="773"/>
      <point x="566" y="800"/>
      <point x="614" y="800" type="qcurve" smooth="yes"/>
      <point x="662" y="800"/>
      <point x="756" y="773"/>
      <point x="792.5" y="746.5" type="qcurve" smooth="yes" name="inserted"/>
      <point x="829" y="720"/>
      <point x="874" y="640"/>
    </contour>
    <contour>
      <point x="844" y="207" type="qcurve" smooth="yes"/>
      <point x="844" y="252"/>
      <point x="801" y="317"/>
      <point x="767.5" y="338.0" type="qcurve" smooth="yes" name="inserted"/>
      <point x="734" y="359"/>
      <point x="652" y="379"/>
      <point x="614" y="379" type="qcurve" smooth="yes"/>
      <point x="575" y="379"/>
      <point x="494" y="359"/>
      <point x="461.0" y="338.0" type="qcurve" smooth="yes" name="inserted"/>
      <point x="428" y="317"/>
      <point x="385" y="252"/>
      <point x="385" y="207" type="qcurve" smooth="yes"/>
      <point x="385" y="161"/>
      <point x="428" y="96"/>
      <point x="461.5" y="76.0" type="qcurve" smooth="yes" name="inserted"/>
      <point x="495" y="56"/>
      <point x="577" y="37"/>
      <point x="616" y="37" type="qcurve" smooth="yes"/>
      <point x="655" y="37"/>
      <point x="736" y="56"/>
      <point x="769.0" y="76.5" type="qcurve" smooth="yes" name="inserted"/>
      <point x="802" y="97"/>
      <point x="844" y="162"/>
    </contour>
    <contour>
      <point x="821" y="587" type="qcurve" smooth="yes"/>
      <point x="821" y="627"/>
      <point x="783" y="689"/>
      <point x="753.0" y="709.5" type="qcurve" smooth="yes" name="inserted"/>
      <point x="723" y="730"/>
      <point x="650" y="751"/>
      <point x="614" y="751" type="qcurve" smooth="yes"/>
      <point x="577" y="751"/>
      <point x="504" y="731"/>
      <point x="474.5" y="710.5" type="qcurve" smooth="yes" name="inserted"/>
      <point x="445" y="690"/>
      <point x="409" y="628"/>
      <point x="409" y="587" type="qcurve" smooth="yes"/>
      <point x="409" y="546"/>
      <point x="447" y="486"/>
      <point x="476.5" y="466.5" type="qcurve" smooth="yes" name="inserted"/>
      <point x="506" y="447"/>
      <point x="580" y="428"/>
      <point x="616" y="428" type="qcurve" smooth="yes"/>
      <point x="651" y="428"/>
      <point x="724" y="447"/>
      <point x="753.5" y="467.0" type="qcurve" smooth="yes" name="inserted"/>
      <point x="783" y="487"/>
      <point x="821" y="546"/>
    </contour>
  </outline>
</glyph>
<glyph name="seven.sup" format="2">
  <advance width="1229"/>
  <outline>
    <contour>
      <point x="901" y="757" type="line"/>
      <point x="517" y="0" type="line"/>
      <point x="461" y="0" type="line"/>
      <point x="843" y="739" type="line"/>
      <point x="326" y="739" type="line"/>
      <point x="326" y="789" type="line"/>
      <point x="901" y="789" type="line"/>
    </contour>
  </outline>
</glyph>
